HIERARCHY
ROOT root
{
	OFFSET 0.000000 0.000000 0.000000
	CHANNELS 6 Xposition Yposition Zposition Zrotation Yrotation Xrotation
	JOINT lhip
	{
		OFFSET 0.058581 -0.082280 -0.017664
		CHANNELS 3 Zrotation Yrotation Xrotation
		JOINT lknee
		{
			OFFSET 0.043451 -0.386469 0.008037
			CHANNELS 3 Zrotation Yrotation Xrotation
			JOINT lankle
			{
				OFFSET -0.014790 -0.426874 -0.037428
				CHANNELS 3 Zrotation Yrotation Xrotation
				JOINT ltoe
				{
					OFFSET 0.041054 -0.060286 0.122042
					CHANNELS 3 Zrotation Yrotation Xrotation
					End Site
					{
						OFFSET 0.000000 0.000000 0.000000
					}
				}
			}
		}
	}
	JOINT rhip
	{
		OFFSET -0.060310 -0.090513 -0.013543
		CHANNELS 3 Zrotation Yrotation Xrotation
		JOINT rknee
		{
			OFFSET -0.043257 -0.383688 -0.004843
			CHANNELS 3 Zrotation Yrotation Xrotation
			JOINT rankle
			{
				OFFSET 0.019056 -0.420046 -0.034562
				CHANNELS 3 Zrotation Yrotation Xrotation
				JOINT rtoe
				{
					OFFSET -0.034840 -0.062106 0.130323
					CHANNELS 3 Zrotation Yrotation Xrotation
					End Site
					{
						OFFSET 0.000000 0.000000 0.000000
					}
				}
			}
		}
	}
	JOINT lowerback
	{
		OFFSET 0.004439 0.124404 -0.038385
		CHANNELS 3 Zrotation Yrotation Xrotation
		JOINT upperback
		{
			OFFSET 0.004488 0.137956 0.026820
			CHANNELS 3 Zrotation Yrotation Xrotation
			JOINT chest
			{
				OFFSET -0.002265 0.056032 0.002855
				CHANNELS 3 Zrotation Yrotation Xrotation
				JOINT lowerneck
				{
					OFFSET -0.013390 0.211636 -0.033468
					CHANNELS 3 Zrotation Yrotation Xrotation
					JOINT upperneck
					{
						OFFSET 0.010113 0.088937 0.050410
						CHANNELS 3 Zrotation Yrotation Xrotation
						End Site
						{
							OFFSET 0.000000 0.000000 0.000000
						}
					}
				}
				JOINT lclavicle
				{
					OFFSET 0.071702 0.114000 -0.018898
					CHANNELS 3 Zrotation Yrotation Xrotation
					JOINT lshoulder
					{
						OFFSET 0.122921 0.045205 -0.019046
						CHANNELS 3 Zrotation Yrotation Xrotation
						JOINT lelbow
						{
							OFFSET 0.255332 -0.015649 -0.022946
							CHANNELS 3 Zrotation Yrotation Xrotation
							JOINT lwrist
							{
								OFFSET 0.265709 0.012698 -0.007375
								CHANNELS 3 Zrotation Yrotation Xrotation
								End Site
								{
									OFFSET 0.000000 0.000000 0.000000
								}
							}
						}
					}
				}
				JOINT rclavicle
				{
					OFFSET -0.082954 0.112472 -0.023707
					CHANNELS 3 Zrotation Yrotation Xrotation
					JOINT rshoulder
					{
						OFFSET -0.113228 0.046853 -0.008472
						CHANNELS 3 Zrotation Yrotation Xrotation
						JOINT relbow
						{
							OFFSET -0.260127 -0.014369 -0.031269
							CHANNELS 3 Zrotation Yrotation Xrotation
							JOINT rwrist
							{
								OFFSET -0.269108 0.006794 -0.006027
								CHANNELS 3 Zrotation Yrotation Xrotation
								End Site
								{
									OFFSET 0.000000 0.000000 0.000000
								}
							}
						}
					}
				}
			}
		}
	}
}
MOTION
Frames: 10
Frame Time: 0.033333
1.815514 0.279538 0.980202 -82.761906 0.482666 86.882967 -1.743147 0.540413 5.028824 -3.650807 -12.499677 6.672186 3.979438 6.746757 -15.532048 0.000000 -0.000000 0.000000 -2.841542 -0.454333 -20.724448 1.279826 -3.631811 21.429805 2.410117 -7.697442 -5.074128 0.000000 -0.000000 0.000000 0.507589 -2.821747 12.611850 2.358364 0.106499 -2.840787 1.120244 -1.613841 -0.071565 -0.516338 5.893507 -10.881641 -5.431202 -2.491811 13.689741 -26.902894 1.709467 1.889204 -52.382350 -7.591935 11.793115 4.061162 -27.564173 11.985090 -4.368699 -7.409820 -1.183384 30.922620 3.447410 1.302551 48.830494 8.398700 14.059287 -11.411605 19.016781 -8.921007 2.653719 4.738872 -4.052599 
1.815435 0.278968 0.980226 -82.760251 0.547677 86.867846 -1.688181 0.569821 5.053662 -3.682579 -12.559085 6.665682 3.862604 6.770779 -15.546500 0.000000 -0.000000 0.000000 -2.774552 -0.492241 -20.706919 1.230308 -3.632640 21.440144 2.385697 -7.648610 -5.051366 0.000000 -0.000000 0.000000 0.623696 -2.889521 12.579796 2.294462 0.118636 -2.945222 1.148247 -1.617404 0.058196 -0.490957 5.927769 -10.910818 -5.382491 -2.404565 13.637327 -26.715561 1.588630 1.946458 -52.363478 -7.563825 11.776998 4.088669 -27.507513 12.083212 -4.333745 -7.454461 -1.356286 30.864598 3.559183 1.342394 48.905523 8.386433 14.093024 -11.456714 19.033407 -8.886993 2.681587 4.739347 -4.232477 
1.815293 0.278409 0.980399 -82.728492 0.558262 86.855759 -1.692035 0.610595 5.083827 -3.690558 -12.572721 6.626836 3.843838 6.726014 -15.528305 0.000000 -0.000000 0.000000 -2.792101 -0.523423 -20.673677 1.220924 -3.638364 21.433669 2.383237 -7.639580 -5.057629 0.000000 -0.000000 0.000000 0.616152 -2.911033 12.597565 2.320975 0.094607 -3.035050 1.191447 -1.641387 0.025233 -0.497617 5.932370 -10.820696 -5.366835 -2.362575 13.582218 -26.613155 1.507824 2.048371 -52.295316 -7.519495 11.745433 4.057090 -27.426783 12.137297 -4.349501 -7.455377 -1.383033 30.785376 3.599996 1.384084 48.958816 8.354851 14.085800 -11.433969 19.066091 -8.845925 2.682437 4.736721 -4.313580 
1.815041 0.277790 0.980633 -82.625498 0.577826 86.841873 -1.667713 0.655789 5.126761 -3.716011 -12.602307 6.586760 3.826379 6.610728 -15.495429 0.000000 -0.000000 0.000000 -2.820813 -0.568631 -20.607207 1.216221 -3.650984 21.401037 2.374644 -7.673287 -5.049876 0.000000 -0.000000 0.000000 0.574456 -2.951517 12.611383 2.384085 0.014824 -3.104618 1.249472 -1.692510 -0.048529 -0.500850 5.924784 -10.705223 -5.336366 -2.318973 13.533084 -26.527139 1.370856 2.219679 -52.187826 -7.489992 11.698848 4.010062 -27.319633 12.155704 -4.352127 -7.454648 -1.415517 30.706323 3.668438 1.441306 48.990341 8.324181 14.072163 -11.429047 19.158792 -8.817399 2.689939 4.671214 -4.422084 
1.814872 0.277449 0.980797 -82.544675 0.596596 86.829898 -1.641148 0.685167 5.154197 -3.731781 -12.631516 6.566905 3.808530 6.531994 -15.473035 0.000000 -0.000000 0.000000 -2.829393 -0.596689 -20.560051 1.210649 -3.660907 21.380091 2.361267 -7.710324 -5.043235 0.000000 -0.000000 0.000000 0.541423 -2.988160 12.631579 2.427715 -0.048063 -3.136714 1.281911 -1.722125 -0.092726 -0.496245 5.918788 -10.654045 -5.311798 -2.293424 13.493889 -26.484892 1.267963 2.328117 -52.114514 -7.476413 11.673299 3.967334 -27.276573 12.187523 -4.370996 -7.463274 -1.432428 30.654520 3.718698 1.463574 49.010841 8.303285 14.051372 -11.436193 19.203126 -8.797776 2.684172 4.649891 -4.463733 
1.814675 0.277027 0.981049 -82.454563 0.615515 86.810420 -1.616931 0.731971 5.191816 -3.745522 -12.660871 6.543532 3.785587 6.437335 -15.450725 0.000000 -0.000000 0.000000 -2.838817 -0.617889 -20.497353 1.193324 -3.666328 21.354587 2.349183 -7.759904 -5.039165 0.000000 -0.000000 0.000000 0.484731 -3.036019 12.677429 2.470159 -0.121106 -3.179208 1.319181 -1.753026 -0.131676 -0.475804 5.908267 -10.644037 -5.275202 -2.274390 13.432982 -26.428736 1.132505 2.429157 -52.015517 -7.481657 11.651864 3.888951 -27.239531 12.249905 -4.375100 -7.484576 -1.416222 30.585676 3.785691 1.461857 49.033548 8.278016 14.031110 -11.436545 19.240767 -8.764967 2.683043 4.646421 -4.480521 
1.814428 0.276628 0.981282 -82.383076 0.635527 86.803159 -1.600617 0.775877 5.215520 -3.747443 -12.672245 6.532415 3.766586 6.348968 -15.433593 0.000000 -0.000000 0.000000 -2.840396 -0.645489 -20.449815 1.165708 -3.678430 21.339426 2.351710 -7.777312 -5.042513 0.000000 -0.000000 0.000000 0.428546 -3.072117 12.751984 2.497452 -0.178011 -3.281581 1.356058 -1.784908 -0.198065 -0.451335 5.870326 -10.577163 -5.226752 -2.269707 13.383494 -26.369239 1.006028 2.538923 -51.945432 -7.471914 11.640534 3.825388 -27.234201 12.311458 -4.397573 -7.503278 -1.431253 30.508228 3.852365 1.503073 49.043417 8.228565 14.010244 -11.427016 19.265642 -8.721263 2.697932 4.691549 -4.496104 
1.814150 0.276265 0.981487 -82.345149 0.665218 86.811864 -1.580238 0.811444 5.223357 -3.744894 -12.671993 6.528409 3.742625 6.280630 -15.418531 0.000000 -0.000000 0.000000 -2.823445 -0.669377 -20.420113 1.131874 -3.686248 21.320572 2.365591 -7.768994 -5.032349 0.000000 -0.000000 0.000000 0.384070 -3.096414 12.858742 2.513448 -0.201497 -3.442293 1.386357 -1.811928 -0.278927 -0.433972 5.803315 -10.496251 -5.164885 -2.275162 13.340556 -26.329806 0.913742 2.627852 -51.884231 -7.455826 11.639839 3.779819 -27.277971 12.359590 -4.402738 -7.536847 -1.440736 30.430219 3.898607 1.547106 49.041789 8.159104 13.995941 -11.418048 19.277313 -8.677538 2.705562 4.747401 -4.499215 
1.813934 0.275889 0.981615 -82.361815 0.698004 86.811692 -1.557724 0.835119 5.247382 -3.745585 -12.639140 6.511127 3.729937 6.238225 -15.410002 0.000000 -0.000000 0.000000 -2.802439 -0.676083 -20.395722 1.118668 -3.674860 21.303944 2.379997 -7.751548 -5.016352 0.000000 -0.000000 0.000000 0.346422 -3.097038 12.904377 2.521519 -0.217598 -3.471771 1.400666 -1.813652 -0.310435 -0.423552 5.757674 -10.560452 -5.108387 -2.308337 13.274169 -26.295534 0.814103 2.649118 -51.842602 -7.508872 11.635757 3.778210 -27.367635 12.331856 -4.357614 -7.559817 -1.451710 30.361997 3.963011 1.534879 49.027723 8.149643 13.977818 -11.419087 19.280174 -8.660471 2.709742 4.776865 -4.490906 
1.813640 0.275357 0.981650 -82.424018 0.739118 86.811504 -1.530838 0.853373 5.289797 -3.754966 -12.591460 6.479245 3.729782 6.209118 -15.403718 0.000000 -0.000000 0.000000 -2.773584 -0.684960 -20.378171 1.125381 -3.639921 21.293492 2.385674 -7.723300 -5.008280 0.000000 -0.000000 0.000000 0.306362 -3.083846 12.894589 2.524629 -0.246417 -3.419252 1.410576 -1.796589 -0.336207 -0.428315 5.716290 -10.657029 -5.053262 -2.353023 13.166561 -26.231772 0.672673 2.674518 -51.845579 -7.589839 11.632203 3.826836 -27.532524 12.268168 -4.313650 -7.560131 -1.551371 30.274526 4.080829 1.559737 49.009653 8.182733 13.926806 -11.443611 19.284161 -8.680077 2.692203 4.763219 -4.514557 
